<?xml version="1.0" encoding="UTF-8" standalone="no"?>
<!DOCTYPE svg PUBLIC "-//W3C//DTD SVG 1.1//EN"
 "http://www.w3.org/Graphics/SVG/1.1/DTD/svg11.dtd">
<!-- Generated by graphviz version 2.43.0 (0)
 -->
<!-- Title: G Pages: 1 -->
<svg width="665pt" height="768pt"
 viewBox="0.00 0.00 664.98 768.00" xmlns="http://www.w3.org/2000/svg" xmlns:xlink="http://www.w3.org/1999/xlink">
<g id="graph0" class="graph" transform="scale(1 1) rotate(0) translate(4 764)">
<title>G</title><style>.edge>path:hover{stroke-width:8}</style>
<polygon fill="white" stroke="transparent" points="-4,4 -4,-764 660.98,-764 660.98,4 -4,4"/>
<!-- muzero_py -->
<g id="node1" class="node">
<title>muzero_py</title><style>.edge>path:hover{stroke-width:8}</style>
<ellipse fill="#4c7326" stroke="black" cx="469.5" cy="-487" rx="40.06" ry="18"/>
<text text-anchor="middle" x="469.5" y="-484.5" font-family="Helvetica,sans-Serif" font-size="10.00" fill="#ffffff">muzero.py</text>
</g>
<!-- pkgresources -->
<g id="node8" class="node">
<title>pkgresources</title><style>.edge>path:hover{stroke-width:8}</style>
<polygon fill="#31c48d" stroke="black" points="445.5,-361 442.5,-365 421.5,-365 418.5,-361 363.5,-361 363.5,-325 445.5,-325 445.5,-361"/>
<text text-anchor="middle" x="404.5" y="-340.5" font-family="Helvetica,sans-Serif" font-size="10.00" fill="#000000">pkgresources</text>
</g>
<!-- muzero_py&#45;&gt;pkgresources -->
<g id="edge10" class="edge">
<title>muzero_py&#45;&gt;pkgresources</title><style>.edge>path:hover{stroke-width:8}</style>
<path fill="none" stroke="black" d="M455.24,-469.8C447.04,-459.77 437.08,-446.31 430.5,-433 420.72,-413.22 413.96,-389.1 409.78,-370.96"/>
<polygon fill="#4c7326" stroke="black" points="413.17,-370.08 407.63,-361.05 406.33,-371.57 413.17,-370.08"/>
</g>
<!-- ray -->
<g id="node9" class="node">
<title>ray</title><style>.edge>path:hover{stroke-width:8}</style>
<polygon fill="#039595" stroke="black" points="473.5,-252 470.5,-256 449.5,-256 446.5,-252 419.5,-252 419.5,-216 473.5,-216 473.5,-252"/>
<text text-anchor="middle" x="446.5" y="-231.5" font-family="Helvetica,sans-Serif" font-size="10.00" fill="#ffffff">ray</text>
</g>
<!-- muzero_py&#45;&gt;ray -->
<g id="edge11" class="edge">
<title>muzero_py&#45;&gt;ray</title><style>.edge>path:hover{stroke-width:8}</style>
<path fill="none" stroke="black" d="M488.62,-461.62C494.23,-453.06 499.63,-443.06 502.5,-433 506.9,-417.62 505.04,-412.8 502.5,-397 494.57,-347.69 472.97,-293.4 459.03,-261.86"/>
<polygon fill="#4c7326" stroke="black" points="485.65,-459.76 482.8,-469.97 491.39,-463.77 485.65,-459.76"/>
<polygon fill="#4c7326" stroke="black" points="462.09,-260.14 454.8,-252.46 455.71,-263.01 462.09,-260.14"/>
</g>
<!-- diagnosemodel -->
<g id="node2" class="node">
<title>diagnosemodel</title><style>.edge>path:hover{stroke-width:8}</style>
<polygon fill="#883a3a" stroke="black" points="255.5,-36 252.5,-40 231.5,-40 228.5,-36 163.5,-36 163.5,0 255.5,0 255.5,-36"/>
<text text-anchor="middle" x="209.5" y="-15.5" font-family="Helvetica,sans-Serif" font-size="10.00" fill="#ffffff">diagnosemodel</text>
</g>
<!-- diagnosemodel&#45;&gt;muzero_py -->
<g id="edge1" class="edge">
<title>diagnosemodel&#45;&gt;muzero_py</title><style>.edge>path:hover{stroke-width:8}</style>
<path fill="none" stroke="black" d="M255.57,-20.58C336.39,-24.27 499.17,-36.08 541.5,-72 616.02,-135.24 587.12,-187.25 610.78,-278.2"/>
<polygon fill="#883a3a" stroke="black" points="607.46,-279.3 613.5,-288 614.2,-277.43 607.46,-279.3"/>
</g>
<!-- grpc -->
<g id="node3" class="node">
<title>grpc</title><style>.edge>path:hover{stroke-width:8}</style>
<polygon fill="#cc6c33" stroke="black" points="493.5,-433 490.5,-437 469.5,-437 466.5,-433 439.5,-433 439.5,-397 493.5,-397 493.5,-433"/>
<text text-anchor="middle" x="466.5" y="-412.5" font-family="Helvetica,sans-Serif" font-size="10.00" fill="#000000">grpc</text>
</g>
<!-- grpc&#45;&gt;ray -->
<g id="edge2" class="edge">
<title>grpc&#45;&gt;ray</title><style>.edge>path:hover{stroke-width:8}</style>
<path fill="none" stroke="black" d="M464.58,-396.84C461.1,-365.7 453.72,-299.66 449.55,-262.28"/>
<polygon fill="#cc6c33" stroke="black" points="453,-261.66 448.41,-252.11 446.04,-262.44 453,-261.66"/>
</g>
<!-- matplotlib -->
<g id="node4" class="node">
<title>matplotlib</title><style>.edge>path:hover{stroke-width:8}</style>
<polygon fill="#c89e23" stroke="black" points="67,-180 64,-184 43,-184 40,-180 0,-180 0,-144 67,-144 67,-180"/>
<text text-anchor="middle" x="33.5" y="-159.5" font-family="Helvetica,sans-Serif" font-size="10.00" fill="#000000">matplotlib</text>
</g>
<!-- matplotlib&#45;&gt;diagnosemodel -->
<g id="edge3" class="edge">
<title>matplotlib&#45;&gt;diagnosemodel</title><style>.edge>path:hover{stroke-width:8}</style>
<path fill="none" stroke="black" d="M46.86,-143.8C62.26,-124.72 88.99,-93.76 116.5,-72 131.24,-60.34 148.86,-49.62 164.77,-40.92"/>
<polygon fill="#c89e23" stroke="black" points="166.73,-43.83 173.9,-36.03 163.43,-37.66 166.73,-43.83"/>
</g>
<!-- seaborn -->
<g id="node11" class="node">
<title>seaborn</title><style>.edge>path:hover{stroke-width:8}</style>
<polygon fill="#3d5cb8" stroke="black" points="63.5,-108 60.5,-112 39.5,-112 36.5,-108 7.5,-108 7.5,-72 63.5,-72 63.5,-108"/>
<text text-anchor="middle" x="35.5" y="-87.5" font-family="Helvetica,sans-Serif" font-size="10.00" fill="#ffffff">seaborn</text>
</g>
<!-- matplotlib&#45;&gt;seaborn -->
<g id="edge4" class="edge">
<title>matplotlib&#45;&gt;seaborn</title><style>.edge>path:hover{stroke-width:8}</style>
<path fill="none" stroke="black" d="M33.99,-143.7C34.21,-135.98 34.48,-126.71 34.73,-118.11"/>
<polygon fill="#c89e23" stroke="black" points="38.22,-118.2 35.01,-108.1 31.23,-118 38.22,-118.2"/>
</g>
<!-- models -->
<g id="node5" class="node">
<title>models</title><style>.edge>path:hover{stroke-width:8}</style>
<polygon fill="#cce619" stroke="black" points="471.5,-180 468.5,-184 447.5,-184 444.5,-180 417.5,-180 417.5,-144 471.5,-144 471.5,-180"/>
<text text-anchor="middle" x="444.5" y="-159.5" font-family="Helvetica,sans-Serif" font-size="10.00" fill="#000000">models</text>
</g>
<!-- models&#45;&gt;muzero_py -->
<g id="edge6" class="edge">
<title>models&#45;&gt;muzero_py</title><style>.edge>path:hover{stroke-width:8}</style>
<path fill="none" stroke="black" d="M468.12,-180.15C484.96,-192.5 508.27,-209.88 529.49,-226.63"/>
<polygon fill="#cce619" stroke="black" points="527.5,-229.51 537.5,-233 531.85,-224.03 527.5,-229.51"/>
</g>
<!-- models&#45;&gt;diagnosemodel -->
<g id="edge5" class="edge">
<title>models&#45;&gt;diagnosemodel</title><style>.edge>path:hover{stroke-width:8}</style>
<path fill="none" stroke="black" d="M440.18,-143.94C434.19,-123.79 421.42,-90.67 398.5,-72 360.87,-41.35 306.61,-28.4 265.87,-22.94"/>
<polygon fill="#cce619" stroke="black" points="266.17,-19.45 255.82,-21.71 265.32,-26.4 266.17,-19.45"/>
</g>
<!-- replaybuffer -->
<g id="node10" class="node">
<title>replaybuffer</title><style>.edge>path:hover{stroke-width:8}</style>
<polygon fill="#437b9d" stroke="black" points="389.5,-108 386.5,-112 365.5,-112 362.5,-108 313.5,-108 313.5,-72 389.5,-72 389.5,-108"/>
<text text-anchor="middle" x="351.5" y="-87.5" font-family="Helvetica,sans-Serif" font-size="10.00" fill="#ffffff">replaybuffer</text>
</g>
<!-- models&#45;&gt;replaybuffer -->
<g id="edge7" class="edge">
<title>models&#45;&gt;replaybuffer</title><style>.edge>path:hover{stroke-width:8}</style>
<path fill="none" stroke="black" d="M421.51,-143.7C409.69,-134.8 395.11,-123.82 382.32,-114.2"/>
<polygon fill="#cce619" stroke="black" points="384.32,-111.32 374.22,-108.1 380.11,-116.91 384.32,-111.32"/>
</g>
<!-- selfplay -->
<g id="node12" class="node">
<title>selfplay</title><style>.edge>path:hover{stroke-width:8}</style>
<polygon fill="#4638a8" stroke="black" points="181.5,-108 178.5,-112 157.5,-112 154.5,-108 125.5,-108 125.5,-72 181.5,-72 181.5,-108"/>
<text text-anchor="middle" x="153.5" y="-87.5" font-family="Helvetica,sans-Serif" font-size="10.00" fill="#ffffff">selfplay</text>
</g>
<!-- models&#45;&gt;selfplay -->
<g id="edge8" class="edge">
<title>models&#45;&gt;selfplay</title><style>.edge>path:hover{stroke-width:8}</style>
<path fill="none" stroke="black" d="M417.38,-154.48C365.23,-141.93 250.86,-114.42 191.27,-100.09"/>
<polygon fill="#cce619" stroke="black" points="192.05,-96.67 181.5,-97.74 190.41,-103.48 192.05,-96.67"/>
</g>
<!-- trainer -->
<g id="node16" class="node">
<title>trainer</title><style>.edge>path:hover{stroke-width:8}</style>
<polygon fill="#9d4365" stroke="black" points="532.5,-108 529.5,-112 508.5,-112 505.5,-108 478.5,-108 478.5,-72 532.5,-72 532.5,-108"/>
<text text-anchor="middle" x="505.5" y="-87.5" font-family="Helvetica,sans-Serif" font-size="10.00" fill="#ffffff">trainer</text>
</g>
<!-- models&#45;&gt;trainer -->
<g id="edge9" class="edge">
<title>models&#45;&gt;trainer</title><style>.edge>path:hover{stroke-width:8}</style>
<path fill="none" stroke="black" d="M459.58,-143.7C466.89,-135.3 475.81,-125.07 483.84,-115.86"/>
<polygon fill="#cce619" stroke="black" points="486.66,-117.94 490.59,-108.1 481.39,-113.34 486.66,-117.94"/>
</g>
<!-- nevergrad -->
<g id="node6" class="node">
<title>nevergrad</title><style>.edge>path:hover{stroke-width:8}</style>
<polygon fill="#169503" stroke="black" points="502.5,-614 499.5,-618 478.5,-618 475.5,-614 436.5,-614 436.5,-578 502.5,-578 502.5,-614"/>
<text text-anchor="middle" x="469.5" y="-593.5" font-family="Helvetica,sans-Serif" font-size="10.00" fill="#ffffff">nevergrad</text>
</g>
<!-- nevergrad&#45;&gt;muzero_py -->
<g id="edge12" class="edge">
<title>nevergrad&#45;&gt;muzero_py</title><style>.edge>path:hover{stroke-width:8}</style>
<path fill="none" stroke="black" d="M469.5,-577.81C469.5,-560.96 469.5,-535.02 469.5,-515.34"/>
<polygon fill="#169503" stroke="black" points="473,-515.15 469.5,-505.15 466,-515.15 473,-515.15"/>
</g>
<!-- numpy -->
<g id="node7" class="node">
<title>numpy</title><style>.edge>path:hover{stroke-width:8}</style>
<polygon fill="#039528" stroke="black" points="496.5,-760 493.5,-764 472.5,-764 469.5,-760 442.5,-760 442.5,-724 496.5,-724 496.5,-760"/>
<text text-anchor="middle" x="469.5" y="-739.5" font-family="Helvetica,sans-Serif" font-size="10.00" fill="#ffffff">numpy</text>
</g>
<!-- numpy&#45;&gt;muzero_py -->
<g id="edge15" class="edge">
<title>numpy&#45;&gt;muzero_py</title><style>.edge>path:hover{stroke-width:8}</style>
<path fill="none" stroke="black" d="M469.5,-650C467.78,-625.47 497.53,-634.23 511.5,-614 530.83,-586 544.76,-575.24 537.5,-542"/>
<path fill="none" stroke="black" d="M537.5,-541C535.11,-524.56 522.01,-512.42 507.94,-503.93"/>
<polygon fill="#039528" stroke="black" points="509.59,-500.85 499.14,-499.12 506.23,-506.99 509.59,-500.85"/>
</g>
<!-- numpy&#45;&gt;diagnosemodel -->
<g id="edge13" class="edge">
<title>numpy&#45;&gt;diagnosemodel</title><style>.edge>path:hover{stroke-width:8}</style>
<path fill="none" stroke="black" d="M651.5,-288C639.97,-186.12 653.89,-131.65 570.5,-72 522.74,-37.83 354.8,-25.36 265.81,-21.07"/>
<polygon fill="#039528" stroke="black" points="265.78,-17.57 255.63,-20.6 265.46,-24.56 265.78,-17.57"/>
</g>
<!-- numpy&#45;&gt;matplotlib -->
<g id="edge14" class="edge">
<title>numpy&#45;&gt;matplotlib</title><style>.edge>path:hover{stroke-width:8}</style>
<path fill="none" stroke="black" d="M470.46,-723.7C471.24,-705.55 471.87,-676.2 469.5,-651"/>
<path fill="none" stroke="black" d="M469.5,-650C467.09,-627.56 316.23,-554.58 297.5,-542"/>
<path fill="none" stroke="black" d="M297.5,-541C253.01,-512.74 219.9,-544.05 184.5,-505 157.34,-475.03 165.5,-456.45 165.5,-416 165.5,-416 165.5,-416 165.5,-342 165.5,-294.44 182.63,-279.36 165.5,-235"/>
<path fill="none" stroke="black" d="M165.5,-233C157.23,-215.08 112.14,-193.72 76.93,-179.35"/>
<polygon fill="#039528" stroke="black" points="77.89,-175.97 67.3,-175.5 75.28,-182.46 77.89,-175.97"/>
</g>
<!-- numpy&#45;&gt;nevergrad -->
<g id="edge16" class="edge">
<title>numpy&#45;&gt;nevergrad</title><style>.edge>path:hover{stroke-width:8}</style>
<path fill="none" stroke="black" d="M469.5,-650C468.92,-641.7 468.75,-632.66 468.77,-624.43"/>
<polygon fill="#039528" stroke="black" points="472.27,-624.25 468.89,-614.21 465.27,-624.16 472.27,-624.25"/>
</g>
<!-- numpy&#45;&gt;replaybuffer -->
<g id="edge17" class="edge">
<title>numpy&#45;&gt;replaybuffer</title><style>.edge>path:hover{stroke-width:8}</style>
<path fill="none" stroke="black" d="M165.5,-233C148.01,-195.1 166.02,-173.55 195.5,-144 224.15,-115.28 268.94,-102.11 303.19,-96.08"/>
<polygon fill="#039528" stroke="black" points="304.13,-99.48 313.45,-94.43 303.02,-92.57 304.13,-99.48"/>
</g>
<!-- numpy&#45;&gt;selfplay -->
<g id="edge18" class="edge">
<title>numpy&#45;&gt;selfplay</title><style>.edge>path:hover{stroke-width:8}</style>
<path fill="none" stroke="black" d="M165.5,-233C148.9,-195.77 148.7,-147.64 150.66,-118.06"/>
<polygon fill="#039528" stroke="black" points="154.15,-118.31 151.46,-108.06 147.18,-117.75 154.15,-118.31"/>
</g>
<!-- torch -->
<g id="node15" class="node">
<title>torch</title><style>.edge>path:hover{stroke-width:8}</style>
<polygon fill="#950371" stroke="black" points="307.5,-252 304.5,-256 283.5,-256 280.5,-252 253.5,-252 253.5,-216 307.5,-216 307.5,-252"/>
<text text-anchor="middle" x="280.5" y="-231.5" font-family="Helvetica,sans-Serif" font-size="10.00" fill="#ffffff">torch</text>
</g>
<!-- numpy&#45;&gt;torch -->
<g id="edge19" class="edge">
<title>numpy&#45;&gt;torch</title><style>.edge>path:hover{stroke-width:8}</style>
<path fill="none" stroke="black" d="M297.5,-541C252,-508.35 301.13,-344.88 297.5,-289"/>
</g>
<!-- numpy&#45;&gt;trainer -->
<g id="edge20" class="edge">
<title>numpy&#45;&gt;trainer</title><style>.edge>path:hover{stroke-width:8}</style>
<path fill="none" stroke="black" d="M537.5,-541C519.79,-419.36 688.35,-406.27 651.5,-289"/>
<path fill="none" stroke="black" d="M651.5,-288C628.96,-216.26 568.01,-149.73 532.39,-115.38"/>
<polygon fill="#039528" stroke="black" points="534.44,-112.49 524.77,-108.14 529.62,-117.57 534.44,-112.49"/>
</g>
<!-- pkgresources&#45;&gt;ray -->
<g id="edge21" class="edge">
<title>pkgresources&#45;&gt;ray</title><style>.edge>path:hover{stroke-width:8}</style>
<path fill="none" stroke="black" d="M420.5,-288C418.05,-278.84 420.77,-269.38 425.24,-261.03"/>
<polygon fill="#31c48d" stroke="black" points="428.26,-262.8 430.62,-252.47 422.33,-259.07 428.26,-262.8"/>
</g>
<!-- pkgresources&#45;&gt;torch -->
<g id="edge22" class="edge">
<title>pkgresources&#45;&gt;torch</title><style>.edge>path:hover{stroke-width:8}</style>
<path fill="none" stroke="black" d="M414.66,-324.89C419.55,-314.55 423.73,-301.07 420.5,-289"/>
<path fill="none" stroke="black" d="M420.5,-288C409.52,-246.92 355.39,-236.7 317.75,-234.68"/>
<polygon fill="#31c48d" stroke="black" points="317.74,-231.17 307.62,-234.3 317.48,-238.17 317.74,-231.17"/>
</g>
<!-- ray&#45;&gt;replaybuffer -->
<g id="edge24" class="edge">
<title>ray&#45;&gt;replaybuffer</title><style>.edge>path:hover{stroke-width:8}</style>
<path fill="none" stroke="black" d="M351.5,-161C338.82,-151.58 339.01,-133.68 342.28,-118.34"/>
<polygon fill="#039595" stroke="black" points="345.77,-118.82 344.91,-108.26 339,-117.05 345.77,-118.82"/>
</g>
<!-- ray&#45;&gt;selfplay -->
<g id="edge25" class="edge">
<title>ray&#45;&gt;selfplay</title><style>.edge>path:hover{stroke-width:8}</style>
<path fill="none" stroke="black" d="M423.04,-215.79C403.79,-201.65 375.84,-181.07 351.5,-163"/>
<path fill="none" stroke="black" d="M351.5,-161C342.4,-154.25 342.4,-149.52 332.5,-144 287.48,-118.89 229.31,-104.52 191.71,-97.24"/>
<polygon fill="#039595" stroke="black" points="192.14,-93.76 181.67,-95.37 190.86,-100.64 192.14,-93.76"/>
</g>
<!-- sharedstorage -->
<g id="node13" class="node">
<title>sharedstorage</title><style>.edge>path:hover{stroke-width:8}</style>
<polygon fill="#7a49ac" stroke="black" points="323.5,-180 320.5,-184 299.5,-184 296.5,-180 237.5,-180 237.5,-144 323.5,-144 323.5,-180"/>
<text text-anchor="middle" x="280.5" y="-159.5" font-family="Helvetica,sans-Serif" font-size="10.00" fill="#ffffff">sharedstorage</text>
</g>
<!-- ray&#45;&gt;sharedstorage -->
<g id="edge26" class="edge">
<title>ray&#45;&gt;sharedstorage</title><style>.edge>path:hover{stroke-width:8}</style>
<path fill="none" stroke="black" d="M419.46,-221.6C395.34,-211.42 359.41,-196.27 330.13,-183.93"/>
<polygon fill="#039595" stroke="black" points="331.45,-180.69 320.88,-180.03 328.73,-187.14 331.45,-180.69"/>
</g>
<!-- ray&#45;&gt;trainer -->
<g id="edge27" class="edge">
<title>ray&#45;&gt;trainer</title><style>.edge>path:hover{stroke-width:8}</style>
<path fill="none" stroke="black" d="M460.43,-215.91C471.51,-202 487.15,-181.7 499.5,-163"/>
</g>
<!-- replaybuffer&#45;&gt;muzero_py -->
<g id="edge28" class="edge">
<title>replaybuffer&#45;&gt;muzero_py</title><style>.edge>path:hover{stroke-width:8}</style>
<path fill="none" stroke="black" d="M358.69,-108.32C367.68,-128.09 384.83,-160.25 408.5,-180 453.39,-217.47 484.7,-197.73 529.31,-227.15"/>
<polygon fill="#437b9d" stroke="black" points="527.33,-230.03 537.5,-233 531.4,-224.34 527.33,-230.03"/>
<path fill="none" stroke="black" d="M537.5,-235C547.85,-242.98 550.79,-244.5 561.5,-252 584.52,-268.12 605.57,-261.03 613.5,-288"/>
<path fill="none" stroke="black" d="M613.5,-289C638.52,-368.62 539.76,-442.36 492.91,-472.12"/>
</g>
<!-- seaborn&#45;&gt;diagnosemodel -->
<g id="edge29" class="edge">
<title>seaborn&#45;&gt;diagnosemodel</title><style>.edge>path:hover{stroke-width:8}</style>
<path fill="none" stroke="black" d="M63.84,-77.6C89.24,-67.38 127.12,-52.14 157.88,-39.77"/>
<polygon fill="#3d5cb8" stroke="black" points="159.21,-43.01 167.18,-36.03 156.59,-36.51 159.21,-43.01"/>
</g>
<!-- selfplay&#45;&gt;muzero_py -->
<g id="edge31" class="edge">
<title>selfplay&#45;&gt;muzero_py</title><style>.edge>path:hover{stroke-width:8}</style>
<path fill="none" stroke="black" d="M159.28,-108.25C177.04,-159.12 235.37,-311.01 328.45,-406.91"/>
<polygon fill="#4638a8" stroke="black" points="325.97,-409.38 335.5,-414 330.93,-404.44 325.97,-409.38"/>
<path fill="none" stroke="black" d="M335.5,-416C364.92,-444.86 408.65,-464.65 438.08,-475.64"/>
</g>
<!-- selfplay&#45;&gt;diagnosemodel -->
<g id="edge30" class="edge">
<title>selfplay&#45;&gt;diagnosemodel</title><style>.edge>path:hover{stroke-width:8}</style>
<path fill="none" stroke="black" d="M167.34,-71.7C173.99,-63.39 182.08,-53.28 189.39,-44.14"/>
<polygon fill="#4638a8" stroke="black" points="192.3,-46.1 195.82,-36.1 186.84,-41.73 192.3,-46.1"/>
</g>
<!-- sharedstorage&#45;&gt;muzero_py -->
<g id="edge32" class="edge">
<title>sharedstorage&#45;&gt;muzero_py</title><style>.edge>path:hover{stroke-width:8}</style>
<path fill="none" stroke="black" d="M294.43,-180.25C301.88,-190.21 310.69,-203.24 316.5,-216 328.72,-242.83 329.34,-253.19 333.7,-278.1"/>
<polygon fill="#7a49ac" stroke="black" points="330.26,-278.79 335.5,-288 337.15,-277.53 330.26,-278.79"/>
</g>
<!-- tensorboard -->
<g id="node14" class="node">
<title>tensorboard</title><style>.edge>path:hover{stroke-width:8}</style>
<polygon fill="#cc19e6" stroke="black" points="269,-505 266,-509 245,-509 242,-505 194,-505 194,-469 269,-469 269,-505"/>
<text text-anchor="middle" x="231.5" y="-484.5" font-family="Helvetica,sans-Serif" font-size="10.00" fill="#ffffff">tensorboard</text>
</g>
<!-- tensorboard&#45;&gt;torch -->
<g id="edge33" class="edge">
<title>tensorboard&#45;&gt;torch</title><style>.edge>path:hover{stroke-width:8}</style>
<path fill="none" stroke="black" d="M236.64,-468.97C245.63,-439.47 265,-377.03 283.5,-325 289.25,-308.82 294.88,-305.97 297.5,-289"/>
<path fill="none" stroke="black" d="M297.5,-288C296.93,-279.23 294.62,-269.99 291.87,-261.73"/>
<polygon fill="#cc19e6" stroke="black" points="295.12,-260.43 288.4,-252.24 288.55,-262.84 295.12,-260.43"/>
</g>
<!-- torch&#45;&gt;muzero_py -->
<g id="edge36" class="edge">
<title>torch&#45;&gt;muzero_py</title><style>.edge>path:hover{stroke-width:8}</style>
<path fill="none" stroke="black" d="M307.75,-250.52C317.46,-257.63 327.26,-267.04 332.43,-278.44"/>
<polygon fill="#950371" stroke="black" points="329.11,-279.55 335.5,-288 335.78,-277.41 329.11,-279.55"/>
<path fill="none" stroke="black" d="M335.5,-289C348.36,-343.05 296.36,-374.57 335.5,-414"/>
</g>
<!-- torch&#45;&gt;diagnosemodel -->
<g id="edge34" class="edge">
<title>torch&#45;&gt;diagnosemodel</title><style>.edge>path:hover{stroke-width:8}</style>
<path fill="none" stroke="black" d="M209.5,-161C201.56,-121.79 203.69,-75.24 206.31,-46.4"/>
<polygon fill="#950371" stroke="black" points="209.81,-46.57 207.32,-36.27 202.84,-45.87 209.81,-46.57"/>
</g>
<!-- torch&#45;&gt;models -->
<g id="edge35" class="edge">
<title>torch&#45;&gt;models</title><style>.edge>path:hover{stroke-width:8}</style>
<path fill="none" stroke="black" d="M307.58,-221.44C335,-209.74 377.58,-191.56 407.97,-178.59"/>
<polygon fill="#950371" stroke="black" points="409.56,-181.72 417.38,-174.58 406.81,-175.28 409.56,-181.72"/>
</g>
<!-- torch&#45;&gt;replaybuffer -->
<g id="edge37" class="edge">
<title>torch&#45;&gt;replaybuffer</title><style>.edge>path:hover{stroke-width:8}</style>
<path fill="none" stroke="black" d="M209.5,-161C200.75,-117.76 258.78,-101.23 303.3,-94.91"/>
<polygon fill="#950371" stroke="black" points="303.95,-98.35 313.42,-93.61 303.06,-91.41 303.95,-98.35"/>
</g>
<!-- torch&#45;&gt;selfplay -->
<g id="edge38" class="edge">
<title>torch&#45;&gt;selfplay</title><style>.edge>path:hover{stroke-width:8}</style>
<path fill="none" stroke="black" d="M253.32,-217.8C235.39,-205.73 214.34,-186.92 209.5,-163"/>
<path fill="none" stroke="black" d="M209.5,-161C205.95,-143.44 194.27,-127.52 182.49,-115.31"/>
<polygon fill="#950371" stroke="black" points="184.81,-112.69 175.21,-108.21 179.92,-117.7 184.81,-112.69"/>
</g>
<!-- torch&#45;&gt;sharedstorage -->
<g id="edge39" class="edge">
<title>torch&#45;&gt;sharedstorage</title><style>.edge>path:hover{stroke-width:8}</style>
<path fill="none" stroke="black" d="M280.5,-215.7C280.5,-207.98 280.5,-198.71 280.5,-190.11"/>
<polygon fill="#950371" stroke="black" points="284,-190.1 280.5,-180.1 277,-190.1 284,-190.1"/>
</g>
<!-- torch&#45;&gt;trainer -->
<g id="edge40" class="edge">
<title>torch&#45;&gt;trainer</title><style>.edge>path:hover{stroke-width:8}</style>
<path fill="none" stroke="black" d="M307.53,-229.92C347.41,-224.5 423.43,-210.77 480.5,-180 490.47,-174.62 493.26,-172.46 499.5,-163"/>
<path fill="none" stroke="black" d="M499.5,-161C507.75,-148.51 509.47,-131.91 509.02,-118.01"/>
<polygon fill="#950371" stroke="black" points="512.51,-117.75 508.33,-108.02 505.53,-118.23 512.51,-117.75"/>
</g>
<!-- trainer&#45;&gt;muzero_py -->
<g id="edge41" class="edge">
<title>trainer&#45;&gt;muzero_py</title><style>.edge>path:hover{stroke-width:8}</style>
<path fill="none" stroke="black" d="M508.14,-108.09C512.95,-138.33 523.49,-200.34 532.54,-224.08"/>
<polygon fill="#9d4365" stroke="black" points="529.58,-225.96 537.5,-233 535.7,-222.56 529.58,-225.96"/>
</g>
</g>
</svg>
